# xmcd
#
# Track frame offsets:
#  150
#  14584
#  31205
#  51438
#  65677
#  88431
#  103653
#  122388
#  140989
#  161392
#  176767
#  191384
#  208183
#  227988
#
# Disc length: 3285 seconds
#
# Revision: 0
# Processed by: cddbd v1.5.1PL0 Copyright (c) Steve Scherf et al.
# Submitted via: Collectorz.com_Music_Collector 6.9
#
DISCID=d00cd30e
DTITLE=Ellis Hooks - Godson Of Soul
DYEAR=2005
DGENRE=Blues
TTITLE0=Five Times
TTITLE1=Black Nights, Blue Moon
TTITLE2=High Roller
TTITLE3=Litta Bitta Lovin
TTITLE4=Was It Something I Said?
TTITLE5=Show Me Your Love
TTITLE6=Chainsaw
TTITLE7=Honeysuckle
TTITLE8=A Phase I'm Going Through
TTITLE9=You Changed My Life
TTITLE10=If God Brought You To It
TTITLE11=Go For It
TTITLE12=Sidetracked
TTITLE13=Rock My Stone
EXTD=
EXTT0=
EXTT1=
EXTT2=
EXTT3=
EXTT4=
EXTT5=
EXTT6=
EXTT7=
EXTT8=
EXTT9=
EXTT10=
EXTT11=
EXTT12=
EXTT13=
PLAYORDER=
